<?xml version="1.0" encoding="utf-8"?>
<!-- Generator: Adobe Illustrator 21.1.0, SVG Export Plug-In . SVG Version: 6.00 Build 0)  -->
<svg version="1.1" baseProfile="basic" id="Layer_1"
	 xmlns="http://www.w3.org/2000/svg" xmlns:xlink="http://www.w3.org/1999/xlink" x="0px" y="0px" viewBox="0 0 1186.1 635.8"
	 xml:space="preserve">
<style type="text/css">
	.st0{fill:#91C5C2;}
</style>
<g>
	<path class="st0" d="M841.2,6.2H561.7v0.1l-37.5,0.1l0.2-0.3l-0.2,0.3L420.4,6.5l0,0h-56.2v1.8h55.2L62,627.3H4.9v1.7h267.9v-1.7
		h-37.9L592.4,8H640v619.5h-78.3v1.8h279.5c162.9,0,335.5-113.9,335.5-311.5C1176.7,120.1,1004.1,6.2,841.2,6.2z M841.2,627.4h-51.6
		V8h51.6C1002.3,8,1029,124.6,1029,317.7C1029,510.8,1002.3,627.4,841.2,627.4z"/>
</g>
</svg>
